<svg xmlns="http://www.w3.org/2000/svg" viewBox="0 0 100 100" width="100" height="100">
  <defs>
    <linearGradient id="gradientAI2" x1="0%" y1="0%" x2="100%" y2="100%">
      <stop offset="0%" style="stop-color:#2563eb;stop-opacity:1" />
      <stop offset="100%" style="stop-color:#9333ea;stop-opacity:1" />
    </linearGradient>
  </defs>

  <!-- Bars made of stacked nodes (neural network style) -->
  <!-- Bar 1 -->
  <circle cx="21" cy="78" r="4" fill="url(#gradientAI2)"/>
  <circle cx="21" cy="70" r="4" fill="url(#gradientAI2)"/>
  <line x1="21" y1="74" x2="21" y2="78" stroke="url(#gradientAI2)" stroke-width="2"/>

  <!-- Bar 2 -->
  <circle cx="38" cy="78" r="4" fill="url(#gradientAI2)"/>
  <circle cx="38" cy="70" r="4" fill="url(#gradientAI2)"/>
  <circle cx="38" cy="62" r="4" fill="url(#gradientAI2)"/>
  <line x1="38" y1="66" x2="38" y2="78" stroke="url(#gradientAI2)" stroke-width="2"/>

  <!-- Bar 3 -->
  <circle cx="55" cy="78" r="4" fill="url(#gradientAI2)"/>
  <circle cx="55" cy="70" r="4" fill="url(#gradientAI2)"/>
  <circle cx="55" cy="62" r="4" fill="url(#gradientAI2)"/>
  <circle cx="55" cy="54" r="4" fill="url(#gradientAI2)"/>
  <circle cx="55" cy="46" r="4" fill="url(#gradientAI2)"/>
  <line x1="55" y1="50" x2="55" y2="78" stroke="url(#gradientAI2)" stroke-width="2"/>

  <!-- Bar 4 -->
  <circle cx="72" cy="78" r="4" fill="url(#gradientAI2)"/>
  <circle cx="72" cy="70" r="4" fill="url(#gradientAI2)"/>
  <circle cx="72" cy="62" r="4" fill="url(#gradientAI2)"/>
  <circle cx="72" cy="54" r="4" fill="url(#gradientAI2)"/>
  <circle cx="72" cy="46" r="4" fill="url(#gradientAI2)"/>
  <circle cx="72" cy="38" r="4" fill="url(#gradientAI2)"/>
  <circle cx="72" cy="30" r="4" fill="url(#gradientAI2)"/>
  <line x1="72" y1="34" x2="72" y2="78" stroke="url(#gradientAI2)" stroke-width="2"/>

  <!-- Growth arrow -->
  <path d="M 70 25 L 85 25 L 85 15" stroke="url(#gradientAI2)" stroke-width="4" fill="none" stroke-linecap="round" stroke-linejoin="round"/>
  <polygon points="88,15 85,10 82,15" fill="url(#gradientAI2)"/>
</svg>
