<svg xmlns="http://www.w3.org/2000/svg" viewBox="0 0 100 100" width="100" height="100">
  <defs>
    <linearGradient id="gradient2" x1="0%" y1="0%" x2="100%" y2="100%">
      <stop offset="0%" style="stop-color:#2563eb;stop-opacity:1" />
      <stop offset="100%" style="stop-color:#9333ea;stop-opacity:1" />
    </linearGradient>
  </defs>

  <!-- Brain outline with circuit style -->
  <path d="M 50 25 Q 35 25 30 35 Q 28 40 30 45 Q 28 50 30 55 Q 25 60 30 68 Q 35 75 45 75 L 55 75 Q 65 75 70 68 Q 75 60 70 55 Q 72 50 70 45 Q 72 40 70 35 Q 65 25 50 25 Z"
        fill="none" stroke="url(#gradient2)" stroke-width="3" stroke-linecap="round"/>

  <!-- Circuit nodes inside -->
  <circle cx="40" cy="45" r="3" fill="url(#gradient2)"/>
  <circle cx="50" cy="40" r="3" fill="url(#gradient2)"/>
  <circle cx="60" cy="45" r="3" fill="url(#gradient2)"/>
  <circle cx="45" cy="55" r="3" fill="url(#gradient2)"/>
  <circle cx="55" cy="55" r="3" fill="url(#gradient2)"/>

  <!-- Lines connecting nodes -->
  <line x1="40" y1="45" x2="50" y2="40" stroke="url(#gradient2)" stroke-width="1.5"/>
  <line x1="50" y1="40" x2="60" y2="45" stroke="url(#gradient2)" stroke-width="1.5"/>
  <line x1="40" y1="45" x2="45" y2="55" stroke="url(#gradient2)" stroke-width="1.5"/>
  <line x1="60" y1="45" x2="55" y2="55" stroke="url(#gradient2)" stroke-width="1.5"/>
</svg>
